<svg xmlns="http://www.w3.org/2000/svg" width="24" height="24" style=""><rect id="backgroundrect" width="100%" height="100%" x="0" y="0" fill="none" stroke="none" class="" style=""/><g class="currentLayer" style=""><title>Layer 1</title><path d="M19,0 h-14 c-2.761,0 -5,2.239 -5,5 v14 c0,2.761 2.239,5 5,5 h14 c2.762,0 5,-2.239 5,-5 v-14 c0,-2.761 -2.238,-5 -5,-5 zm-4.466,19.59 c-0.405,0.07800000000000001 -0.534,-0.171 -0.534,-0.38400000000000006 v-2.195 c0,-0.7470000000000001 -0.262,-1.233 -0.55,-1.481 c1.782,-0.19800000000000004 3.654,-0.8750000000000001 3.654,-3.947 c0,-0.8740000000000001 -0.31200000000000006,-1.588 -0.8230000000000001,-2.1470000000000002 c0.08200000000000002,-0.202 0.35600000000000004,-1.016 -0.07900000000000001,-2.117 c0,0 -0.6710000000000002,-0.21500000000000002 -2.198,0.8200000000000001 c-0.6400000000000001,-0.18000000000000002 -1.324,-0.267 -2.004,-0.271 c-0.6800000000000002,0.003000000000000001 -1.364,0.09100000000000003 -2.003,0.269 c-1.528,-1.035 -2.2,-0.8200000000000001 -2.2,-0.8200000000000001 c-0.43400000000000005,1.102 -0.16000000000000003,1.915 -0.07700000000000001,2.118 c-0.512,0.56 -0.8240000000000001,1.2730000000000001 -0.8240000000000001,2.1470000000000002 c0,3.064 1.867,3.7510000000000003 3.645,3.954 c-0.22900000000000004,0.2 -0.43600000000000005,0.552 -0.508,1.07 c-0.457,0.20400000000000001 -1.614,0.557 -2.3280000000000003,-0.6660000000000001 c0,0 -0.42300000000000004,-0.7680000000000001 -1.227,-0.8250000000000001 c0,0 -0.78,-0.010000000000000002 -0.05500000000000001,0.48700000000000004 c0,0 0.525,0.24600000000000002 0.8890000000000001,1.17 c0,0 0.463,1.428 2.688,0.9440000000000001 v1.489 c0,0.21100000000000002 -0.129,0.459 -0.528,0.38500000000000006 c-3.18,-1.057 -5.472,-4.056 -5.472,-7.59 c0,-4.4190000000000005 3.582,-8 8,-8 s8,3.581 8,8 c0,3.533 -2.289,6.531 -5.466,7.59 z" id="svg_1" class="" fill="#ffffff" fill-opacity="1"/></g></svg>